<?xml version="1.0" encoding="iso-8859-1"?>
<!-- Generator: Adobe Illustrator 18.0.0, SVG Export Plug-In . SVG Version: 6.00 Build 0)  -->
<!DOCTYPE svg PUBLIC "-//W3C//DTD SVG 1.1//EN" "http://www.w3.org/Graphics/SVG/1.1/DTD/svg11.dtd">
<svg version="1.1" id="Capa_1" xmlns="http://www.w3.org/2000/svg" xmlns:xlink="http://www.w3.org/1999/xlink" x="0px" y="0px"
	 viewBox="0 0 317.124 317.124" style="enable-background:new 0 0 317.124 317.124;" xml:space="preserve">
<path d="M309.008,195.1l-6.288,0.022c2.298-1.434,3.829-2.981,3.819-5.888c-0.015-4.467-3.649-7.076-8.116-7.061l-52.313,1.727
	c-1.173,0.039-2.241-0.671-2.659-1.768c-0.418-1.097-0.093-2.337,0.808-3.089l9.368-7.814c3.497-2.781,4.077-7.869,1.295-11.365
	c-2.78-3.496-7.869-4.076-11.365-1.295c0,0-22.083,17.638-29.492,23.456c-12.207,9.586-27.613,14.084-43.061,12.582
	c-34.146-3.32-70.284-5.36-84.886-1.204L84.217,67.425c-0.055-3.674-3.049-6.623-6.724-6.623H6.725
	c-2.025,0-3.941,0.912-5.219,2.483c-1.277,1.571-1.778,3.634-1.364,5.616L32.09,221.905c4.645,22.247,25.724,37.128,48.235,34.004
	c35.289-4.897,75.304-13.261,108.772-20.277c10.381-2.176,20.913-2.503,31.416-1.025c31.895,4.488,54.572,3.715,59.033,3.7
	c4.467-0.015,8.076-1.649,8.06-6.117c-0.01-2.907-1.558-4.444-3.866-5.861l13.422-0.046c4.467-0.016,8.076-3.65,8.061-8.117
	c-0.01-2.908-1.558-5.444-3.866-6.862l7.707-0.027c4.467-0.016,8.076-3.65,8.06-8.117
	C317.109,198.693,313.475,195.084,309.008,195.1z M12.735,83.977c0-4.142,3.358-7.5,7.5-7.5s7.5,3.358,7.5,7.5
	c0,4.142-3.358,7.5-7.5,7.5S12.735,88.119,12.735,83.977z M34.93,159.844c-0.466,0.087-0.93,0.129-1.388,0.129
	c-3.539,0-6.69-2.517-7.363-6.122l-9.188-49.121c-0.762-4.071,1.922-7.989,5.993-8.751c4.063-0.759,7.99,1.922,8.751,5.993
	l9.188,49.121C41.685,155.165,39.001,159.083,34.93,159.844z"/>
<g>
</g>
<g>
</g>
<g>
</g>
<g>
</g>
<g>
</g>
<g>
</g>
<g>
</g>
<g>
</g>
<g>
</g>
<g>
</g>
<g>
</g>
<g>
</g>
<g>
</g>
<g>
</g>
<g>
</g>
</svg>
