<?xml version="1.0" encoding="iso-8859-1"?>
<!-- Generator: Adobe Illustrator 16.0.0, SVG Export Plug-In . SVG Version: 6.00 Build 0)  -->
<!DOCTYPE svg PUBLIC "-//W3C//DTD SVG 1.1//EN" "http://www.w3.org/Graphics/SVG/1.1/DTD/svg11.dtd">
<svg version="1.1" id="Capa_1" xmlns="http://www.w3.org/2000/svg" xmlns:xlink="http://www.w3.org/1999/xlink" x="0px" y="0px"
	 width="563.6px" height="563.6px" viewBox="0 0 563.6 563.6" style="enable-background:new 0 0 563.6 563.6;" xml:space="preserve"
	>
<g>
	<g>
		<circle cx="190.184" cy="43.854" r="43.854"/>
		<path d="M216.992,179.364l14.707,30.06c1.54,3.304,3.916,6.149,6.899,8.248l36.84,26.02l29.558,21.186
			c3.456,2.481,7.415,3.739,11.369,3.873c6.708,0.229,13.397-2.792,17.596-8.654c6.679-9.319,4.542-22.286-4.777-28.965
			l-10.279-7.368c-0.865-0.908-1.816-1.759-2.883-2.51l-48.836-34.501l-33.569-68.381c-3.414-7.33-10.547-11.642-18.106-11.948
			c-0.163-0.033-0.354-0.11-0.492-0.11h-64.294c-5.102,0-9.051,4.169-8.773,9.261l-5.556,107.851
			c0.277,5.092-1.439,12.957-3.811,17.476L66.33,367.075c-2.372,4.519-0.139,8.215,4.963,8.215h41.735v38.508L38.097,518.297
			c-6.718,9.366-4.566,22.405,4.8,29.118c3.682,2.639,7.932,3.911,12.14,3.911c6.498,0,12.905-3.027,16.979-8.712l78.838-109.954
			c2.539-3.548,3.911-7.799,3.911-12.159v-45.216h10.212l52.646,161.63c2.874,8.812,11.05,14.411,19.837,14.411
			c2.142,0,4.322-0.33,6.469-1.033c10.958-3.566,16.949-15.343,13.383-26.302L208.878,375.29h32.459
			c5.102,0,7.698-3.863,5.776-8.588l-51.15-125.45c-1.927-4.724-1.754-12.378,0.378-17.016L216.992,179.364z"/>
		<path d="M514.28,513.367c14.593,0,16.893-7.344,14.105-13.569c-0.718-1.602-51.05-112.718-51.882-114.463
			c-0.822-1.716-2.328-6.307-10.734-6.307c-5.397,0-9.931,3.361-11.24,8.301c-0.354,1.334-1.492,2.472-2.878,2.472h-36.28
			c-1.382,0-3.175-0.898-4.021-1.989c-0.344-0.439-1.945-7.291-8.816-7.291c0,0-18.097,0-20.215,0
			c-8.621,0-13.029,2.988-14.971,11.504l-21.243,72.034c-0.358,1.334-1.688,2.219-3.069,2.108c0,0-12.465,0-14.783,0
			c-8.037,0-14.282,5.785-14.282,13.822c0,0.526-1.516,23.003-1.529,28.626c-0.005,1.382-0.416,3.547-0.822,4.867
			c-1.114,3.604-1.717,7.435-1.717,11.403c0,21.382,17.332,38.714,38.714,38.714s38.714-17.863,38.714-39.245
			c0-3.271-0.406-5.852-1.172-9.467c-0.287-1.353,0.483-2.448,1.731-2.448c1.247,0,2.739,1.014,3.332,2.262
			c0,0,16.3,34.659,16.309,34.722c0.015,0.067,0.607,1.085,1.54,2.104c2.496,2.735,6.058,4.442,10.017,4.442
			c7.545,0,13.665-5.977,13.665-13.521c0-0.67-0.048-1.281-0.144-1.884c-0.163-1.033-11.557-25.862-11.557-25.862
			c-0.593-1.248,0.043-2.262,1.43-2.262h18.102c1.382,0,2.271,1.101,1.994,2.453c-0.712,3.467-1.09,5.666-1.09,8.707
			c0,19.847,16.084,36.193,35.931,36.193c19.843,0,35.932-15.955,35.932-35.797c0-2.754-0.312-5.398-0.899-7.956
			C512.129,514.683,512.898,513.367,514.28,513.367z M467.276,429.896c-29.64,0-49.62,37.973-63.845,37.973
			c0,0-3.002,0.158-4.169-0.053c-1.162-0.21-1.745-1.439-1.367-2.769l14.425-49.051c0.368-1.334,1.74-2.424,3.122-2.424h46.335
			c1.382,0,2.831,0.803,3.232,1.793l0.727,1.798l3.247,10.012C469.408,428.49,468.624,429.581,467.276,429.896z"/>
		<circle cx="394.759" cy="338.531" r="33.918"/>
	</g>
</g>
<g>
</g>
<g>
</g>
<g>
</g>
<g>
</g>
<g>
</g>
<g>
</g>
<g>
</g>
<g>
</g>
<g>
</g>
<g>
</g>
<g>
</g>
<g>
</g>
<g>
</g>
<g>
</g>
<g>
</g>
</svg>
