<?xml version="1.0" encoding="iso-8859-1"?>
<!-- Generator: Adobe Illustrator 19.0.0, SVG Export Plug-In . SVG Version: 6.00 Build 0)  -->
<svg version="1.1" id="Layer_1" xmlns="http://www.w3.org/2000/svg" xmlns:xlink="http://www.w3.org/1999/xlink" x="0px" y="0px"
	 viewBox="0 0 487.825 487.825" style="enable-background:new 0 0 487.825 487.825;" xml:space="preserve">
<g>
	<g>
		<path d="M258.962,6.225c-7.3-8.3-22.9-8.3-30.2,0c-16.6,18.7-166.4,186.2-166.4,287.1c0,107.2,81.1,194.5,181,194.5
			s181-87.4,182.1-194.5C425.362,192.425,275.563,24.925,258.962,6.225z M243.362,446.225c-77,0-140.4-68.7-140.4-154
			c0-64.5,90.5-184.1,140.4-242.4c49.9,58.3,140.4,177.9,140.4,242.4C383.762,377.625,321.362,446.225,243.362,446.225z"/>
	</g>
	<g>
		<path d="M245.962,262.425c0-25-20.4-45.4-45.4-45.4h-34c-7.2,0-13,5.8-13,13v64.8v0.1v0.1v64.8c0,7.2,5.8,13,13,13h34
			c25,0,45.4-20.4,45.4-45.4c0-12.7-5.3-24.2-13.7-32.5C240.662,286.725,245.962,275.125,245.962,262.425z M179.562,243.025h21
			c10.7,0,19.4,8.7,19.4,19.4c0,10.7-8.7,19.4-19.4,19.4h-21V243.025z M200.562,346.725h-21v-38.8h21c10.7,0,19.4,8.7,19.4,19.4
			S211.262,346.725,200.562,346.725z"/>
		<path d="M335.162,281.925h-21.5v-21.5c0-7.2-5.8-13-13-13s-13,5.8-13,13v21.5h-21.5c-7.2,0-13,5.8-13,13s5.8,13,13,13h21.5v21.5
			c0,7.2,5.8,13,13,13s13-5.8,13-13v-21.5h21.5c7.2,0,13-5.8,13-13S342.362,281.925,335.162,281.925z"/>
	</g>
</g>
<g>
</g>
<g>
</g>
<g>
</g>
<g>
</g>
<g>
</g>
<g>
</g>
<g>
</g>
<g>
</g>
<g>
</g>
<g>
</g>
<g>
</g>
<g>
</g>
<g>
</g>
<g>
</g>
<g>
</g>
</svg>
