<?xml version="1.0" encoding="utf-8"?>

<!DOCTYPE svg PUBLIC "-//W3C//DTD SVG 1.1//EN" "http://www.w3.org/Graphics/SVG/1.1/DTD/svg11.dtd">
<svg version="1.1" id="Layer_1" xmlns="http://www.w3.org/2000/svg" xmlns:xlink="http://www.w3.org/1999/xlink" x="0px" y="0px"
	 width="29.838px" height="32.396px" viewBox="0 0 29.838 32.396" enable-background="new 0 0 29.838 32.396" xml:space="preserve">
<g id="cake">
	<path d="M29.739,27.962c-0.166-0.346-0.516-0.566-0.901-0.566h-0.919v-16c0-0.553-0.447-1-1-1h-0.936
		c0.371-0.458,0.602-1.032,0.602-1.667c0-0.975-0.684-1.599-1.334-2.666c-0.359-0.592-0.71-1.3-0.961-1.837
		c-0.066-0.146-0.212-0.237-0.372-0.237s-0.304,0.093-0.372,0.237c-0.251,0.537-0.602,1.245-0.961,1.837
		c-0.65,1.067-1.334,1.691-1.334,2.666c0,0.635,0.23,1.209,0.602,1.667H17.54c0.839-0.733,1.38-1.799,1.38-3.001
		c0-1.461-1.024-2.397-2.002-3.998c-0.634-1.044-1.249-2.328-1.625-3.155C15.226,0.095,15.08,0,14.919,0.001
		c-0.161,0-0.307,0.094-0.374,0.239c-0.376,0.827-0.991,2.111-1.625,3.155c-0.977,1.601-2.002,2.537-2.002,3.998
		c0,1.202,0.541,2.268,1.38,3.001H7.986c0.37-0.458,0.601-1.032,0.601-1.667c0-0.975-0.684-1.599-1.334-2.666
		c-0.36-0.592-0.71-1.3-0.961-1.837C6.225,4.079,6.08,3.989,5.92,3.989S5.616,4.08,5.548,4.225C5.297,4.762,4.946,5.47,4.587,6.062
		c-0.65,1.067-1.334,1.691-1.334,2.666c0,0.635,0.23,1.209,0.601,1.667H2.919c-0.553,0-1,0.447-1,1v16H1
		c-0.385,0-0.735,0.221-0.901,0.566c-0.167,0.346-0.12,0.758,0.12,1.059l1.373,1.715c0.839,1.049,2.109,1.66,3.452,1.66h19.75
		c1.344,0,2.613-0.611,3.452-1.66l1.373-1.715C29.858,28.719,29.905,28.307,29.739,27.962z M22.582,7.498
		c0.077-0.11,0.16-0.229,0.242-0.363c0.317-0.522,0.63-1.26,0.633-1.269c0.108-0.256,0.401-0.37,0.655-0.267
		c0.254,0.106,0.373,0.4,0.267,0.655c-0.014,0.032-0.344,0.813-0.7,1.398c-0.094,0.153-0.188,0.288-0.275,0.415
		c-0.209,0.302-0.318,0.468-0.318,0.658c0,0.46,0.374,0.834,0.834,0.834c0.275,0,0.5,0.224,0.5,0.5s-0.225,0.5-0.5,0.5
		c-1.012,0-1.834-0.822-1.834-1.834C22.084,8.215,22.337,7.852,22.582,7.498z M13.12,5.696c0.119-0.171,0.246-0.354,0.372-0.561
		c0.487-0.801,0.961-1.923,0.966-1.936c0.106-0.254,0.399-0.374,0.655-0.267c0.254,0.106,0.375,0.4,0.267,0.655
		c-0.021,0.048-0.508,1.202-1.034,2.065c-0.137,0.226-0.275,0.425-0.405,0.611c-0.343,0.494-0.522,0.769-0.522,1.129
		c0,0.828,0.673,1.501,1.501,1.501c0.276,0,0.5,0.224,0.5,0.5s-0.224,0.5-0.5,0.5c-1.379,0-2.501-1.122-2.501-2.501
		C12.418,6.704,12.759,6.214,13.12,5.696z M4.584,7.498c0.077-0.11,0.16-0.229,0.242-0.363c0.317-0.522,0.63-1.26,0.633-1.269
		C5.567,5.611,5.862,5.496,6.114,5.6C6.368,5.706,6.488,6,6.381,6.255c-0.014,0.032-0.344,0.813-0.7,1.398
		C5.587,7.807,5.493,7.942,5.405,8.069C5.196,8.37,5.087,8.536,5.087,8.727c0,0.46,0.374,0.834,0.834,0.834
		c0.276,0,0.5,0.224,0.5,0.5s-0.224,0.5-0.5,0.5c-1.012,0-1.834-0.822-1.834-1.834C4.086,8.215,4.339,7.852,4.584,7.498z
		 M25.919,27.395h-22v-2h22V27.395z M25.919,23.395h-18h-4v-9.232c0.083,0.003,0.16,0.007,0.265,0.007
		c1.735,0,2.139,1.958,2.127,3.836c-0.01,1.605-0.095,5.389,1.608,5.389c1,0,2.02-1,2.02-3.838c0-1.811,0.771-4.605,2.68-4.605
		c1.301,0,2.701,0.755,3.444,1.812c1.855,2.633,2.855-1.61,4.72-1.61c2.56,0,3.735,4.645,5.137,4.167L25.919,23.395L25.919,23.395z"
		/>
</g>
<g id="Layer_1_1_">
</g>
</svg>
