<svg xmlns="http://www.w3.org/2000/svg" enable-background="new 0 0 50 50" viewBox="0 0 50 50"><circle cx="40.292" cy="13.248" r="2.686"/><path d="M35.6644,28.9717c-0.0939,0.5159-0.1271,0.8975-0.7312,1.0574c-0.03,0.0099-0.07,0.0199-0.0999,0.0198
			l0.5532-2.0267C35.6144,28.6609,35.6302,28.7993,35.6644,28.9717z"/><path d="M42.4513,17.2797c-0.0243,0-0.0482-0.0001-0.0725,0.0005c-0.0656,0.001-0.1282,0.0123-0.1912,0.0224
			c-0.0734-0.0126-0.1477-0.023-0.2248-0.0231l-3.3574-0.0063c-0.0771-0.0001-0.1515,0.0099-0.225,0.0223
			c-0.0629-0.0104-0.1255-0.0219-0.1911-0.0232c-0.024-0.0007-0.0485-0.0008-0.0725-0.0008
			c-4.2944-0.008-6.324,7.0204-6.5423,7.8262c-0.1573,0.58,0.0948,1.1689,0.5756,1.4767l1.0349,0.1656
			c0.459-0.1122,0.8483-0.4504,0.9814-0.9384c0.5309-1.9454,1.7737-4.6406,3.0905-5.5371l-0.0089,4.7282l-1.9644,7.2148
			l1.9507,0.0037l-0.011,5.8754c-0.0014,0.7417,0.5989,1.3441,1.3404,1.3455c0.7417,0.0014,1.3441-0.5988,1.3455-1.3405
			l0.011-5.8754l0.6715,0.0013l-0.011,5.8754c-0.0014,0.7417,0.5988,1.3441,1.3404,1.3455
			c0.7417,0.0014,1.3441-0.5988,1.3455-1.3405l0.011-5.8754l1.951,0.0037l-1.9374-7.2221l0.0089-4.7281
			c1.2853,0.8821,2.4903,3.4834,3.0325,5.4199l-0.0005,0.2859c0,0,0.0037,0.0033,0.0109,0.0353l0.115,0.0002
			c0.0509,0.1134,0.1109,0.2171,0.1882,0.3095l-0.0001,0.0697c0.0859,0.0237,0.4635,0.2844,0.5658,0.3931l0.0001-0.0537
			c0.2583,0.0937,0.5217,0.1126,0.8022,0.0378c0.831-0.223,0.8727-0.749,0.9857-1.4231
			C48.9036,24.3505,46.6605,17.2876,42.4513,17.2797z"/><circle cx="29.207" cy="20.005" r="1.991"/><path d="M22.0376 30.1348l.0046-2.4672C21.7432 28.6083 21.478 29.3009 22.0376 30.1348zM31.4296 28.714l1.4383 5.3566-1.4484-.0027-.0082 4.3551c-.001.5494-.4513.998-1.0007.997-.5494-.001-.988-.4514-.987-1.0007l.0082-4.3551-.4994-.0009-.0082 4.3551c-.001.5494-.4514.998-1.0007.997-.5494-.001-.988-.4514-.987-1.0007l.0082-4.3551-1.4484-.0027 1.4584-5.3512.0065-3.496c-.9801.6575-1.9028 2.6535-2.2951 4.101-.1006.3595-.3907.6086-.7305.6979l-.7589-.1213c-.3592-.2304-.5482-.6702-.4275-1.0995.161-.5991 1.659-5.8103 4.8454-5.8043l.0499.0001c.0499.0101.0999.0102.1498.0202.0499-.0098.1099-.0197.1598-.0196l2.4872.0047c.0599.0001.1199.0102.1698.0203.0499-.0098.0899-.0098.1398-.0197l.06.0001c.1298.0002.2596.0105.3895.0307-.3012.8085-.4922 1.4774-.5927 1.8168-.2414.9185.0863 1.878.8244 2.4488L31.4296 28.714zM35.6644 28.9717c-.145.7965-.4544 1.3467-1.3304 1.0264l-.0001.0399c-.0986-.099-.2513-.1781-.2394-.1602-.0498-.07-.1097-.1101-.1795-.1302l.0001-.05c-.0598-.07-.0997-.14-.1394-.23l-.0799-.0001-.01-.01c0-.01 0-.01 0-.01l.0004-.2197c-.1389-.4598-.3178-.9795-.5366-1.4793l.0799.0101c.692-.1807 1.2153-.4172 1.6302-1.0757C35.1336 27.2816 35.5378 28.3336 35.6644 28.9717z"/><circle cx="9.722" cy="13.72" r="2.686"/><path d="M18.3953,25.6011c-0.1134-0.4253-0.7296-2.5803-1.9109-4.526c0.0072-0.0124,0.013-0.0249,0.0202-0.0373
			c-1.0615-1.7284-2.5745-3.2832-4.5897-3.287l-0.0317-0.0001l-0.0405-0.0001l-0.0317-0.0001
			c-0.0611-0.0001-0.1214,0.011-0.1778,0.0219c-0.0674-0.0112-0.1388-0.0225-0.2055-0.0226l-0.0317-0.0001l-3.3309-0.0062
			l-0.0317-0.0001c-0.0667-0.0001-0.1382,0.011-0.2056,0.0219c-0.0564-0.0111-0.1166-0.0225-0.1777-0.0226l-0.0318-0.0001
			l-0.0404-0.0001l-0.0317-0.0001c-2.0152-0.0038-3.5339,1.5454-4.6019,3.2698c0.0072,0.0125,0.0129,0.0249,0.0201,0.0373
			C1.8801,22.8207,1.0445,25.27,1,25.791c0.143,0.8448,0.3104,1.4683,1.3327,1.4703c0.1564,0.0003,0.3068-0.0295,0.4513-0.0773
			l-0.0001,0.0541c0.1033-0.1199,0.3013-0.234,0.3253-0.2339c0.0723-0.0841,0.1506-0.1321,0.2409-0.162l0.0001-0.0661
			c0.0783-0.0901,0.1387-0.1982,0.187-0.3125l0.1203,0.0002l0-0.018l0.0061-0.0121l0.0005-0.2887
			c0.5465-1.9199,1.7452-4.4846,3.0222-5.3813L6.654,38.0249c-0.0014,0.7459,0.599,1.3486,1.3389,1.35
			c0.0067,0,0.0122-0.0036,0.0188-0.0037c0.0066,0.0001,0.0121,0.0038,0.0188,0.0038c0.7399,0.0014,1.3426-0.599,1.344-1.345
			l0.0168-8.9508l0.6359,0.0012l-0.0168,8.9508c-0.0014,0.7459,0.599,1.3486,1.3389,1.35c0.0067,0,0.0122-0.0036,0.0189-0.0037
			c0.0067,0.0001,0.0121,0.0038,0.0188,0.0038c0.7399,0.0014,1.3426-0.599,1.344-1.345l0.0323-17.2613
			c1.2736,0.9015,2.4627,3.4707,3.002,5.3926l-0.0005,0.2887l0.006,0.0121l0,0.018l0.1202,0.0002
			c0.0479,0.1144,0.1079,0.2228,0.1859,0.3132l-0.0001,0.0661c0.0902,0.0303,0.1683,0.0785,0.2403,0.1629
			c0.0239,0,0.2215,0.1148,0.3244,0.2351l0.0001-0.0541C17.7335,27.576,18.6424,26.6011,18.3953,25.6011z"/><g><circle cx="19.703" cy="19.616" r="2.071"/><path d="M21.3922,22.722c1.0289,0.0019,1.8869,0.5229,2.5847,1.2634c-0.4805,0.5784-0.8713,1.237-1.1721,1.8557
			c-0.2491-0.3301-0.4983-0.6102-0.7577-0.7905l-0.0249,13.3148c-0.0011,0.5694-0.4614,1.038-1.0308,1.0369
			c-0.01,0-0.01-0.01-0.0199-0.01l-0.01,0.01c-0.5694-0.0011-1.038-0.4714-1.0369-1.0408l0.0129-6.9021l-0.4894-0.0009
			l-0.0129,6.9021c-0.0011,0.5694-0.4614,1.038-1.0307,1.0369c-0.01,0-0.01-0.01-0.02-0.01l-0.01,0.01
			c-0.5793-0.0011-1.0379-0.4714-1.0369-1.0408l0.0164-8.7501l0.2791,0.3202l0.0032-1.6981
			c2.6832-0.8834,1.7334-3.3275,0.7995-5.5122l2.587,0.0048c0.05,0.0001,0.0999,0.0102,0.1498,0.0202
			c0.0499-0.0098,0.0899-0.0198,0.1399-0.0197L21.3922,22.722z"/></g></svg>