<svg xmlns="http://www.w3.org/2000/svg" width="32" height="32"><path d="M24.402 6.543a.5.5 0 0 0-.134.018l-4.772 1.283a.5.5 0 1 0 .26.967l3.605-.971-3.26 5.642c-1.818-.769-3.961-.132-4.956 1.592-1.08 1.87-.393 4.284 1.507 5.381 1.9 1.097 4.337.487 5.416-1.383.995-1.723.473-3.897-1.101-5.088l3.26-5.644.96 3.605a.5.5 0 1 0 .967-.258l-1.273-4.773a.5.5 0 0 0-.479-.371zM8.996 10C6.802 10 5 11.75 5 13.908c0 1.99 1.537 3.612 3.496 3.856V22H6.52a.5.5 0 1 0 0 1h1.976v2.494a.5.5 0 1 0 1 0V23h1.973a.5.5 0 1 0 0-1H9.496v-4.236c1.96-.244 3.498-1.865 3.498-3.856 0-2.158-1.803-3.908-3.998-3.908zm0 1c1.668 0 2.998 1.304 2.998 2.908 0 1.604-1.33 2.906-2.998 2.906C7.328 16.814 6 15.512 6 13.908S7.328 11 8.996 11zm9.358 3.146a3.056 3.056 0 0 1 1.705.41c1.444.835 1.944 2.627 1.142 4.016-.802 1.39-2.604 1.852-4.049 1.018-1.444-.834-1.944-2.627-1.142-4.016a2.877 2.877 0 0 1 2.344-1.428z" color="#000" font-family="sans-serif" font-weight="400" overflow="visible" style="line-height:normal;text-indent:0;text-align:start;text-decoration-line:none;text-decoration-style:solid;text-decoration-color:#000;text-transform:none;block-progression:tb;white-space:normal;isolation:auto;mix-blend-mode:normal;solid-color:#000;solid-opacity:1"/></svg>