<?xml version="1.0" encoding="iso-8859-1"?>
<!-- Generator: Adobe Illustrator 16.0.0, SVG Export Plug-In . SVG Version: 6.00 Build 0)  -->
<!DOCTYPE svg PUBLIC "-//W3C//DTD SVG 1.1//EN" "http://www.w3.org/Graphics/SVG/1.1/DTD/svg11.dtd">
<svg version="1.1" id="Capa_1" xmlns="http://www.w3.org/2000/svg" xmlns:xlink="http://www.w3.org/1999/xlink" x="0px" y="0px"
	 width="29.734px" height="29.734px" viewBox="0 0 29.734 29.734" style="enable-background:new 0 0 29.734 29.734;"
	 xml:space="preserve">
<g>
	<g>
		<path d="M29.322,27.067c-0.352,0.424-0.867,0.659-1.454,0.662h-0.013c0.038-0.284,0.047-0.576-0.007-0.877l-0.003-0.02h0.018
			c0.316-0.003,0.59-0.123,0.769-0.337c0.178-0.215,0.243-0.505,0.188-0.816l-0.76-4.113c-0.138-0.747-0.882-1.505-1.624-1.657
			l-2.352-0.479v-8.812c0-5.501-2.255-9.063-6.279-10.151c0.021,0,0.042-0.004,0.063-0.004c4.438-0.027,8.056,2.536,8.099,9.341
			l0.059,9.106l0.589,0.121c1.101,0.226,2.122,1.268,2.324,2.371l0.76,4.113C29.806,26.095,29.673,26.644,29.322,27.067z
			 M3.263,19.965l2.612-0.551V10.62c0-5.491,2.245-9.051,6.256-10.146c-0.071-0.001-0.14-0.007-0.211-0.007
			c-4.44,0-8.039,2.586-8.039,9.39v9.062l-0.804,0.169c-1.099,0.231-2.114,1.28-2.311,2.388l-0.733,4.118
			c-0.103,0.577,0.035,1.128,0.387,1.549c0.353,0.42,0.871,0.65,1.458,0.65h0.008c-0.045-0.289-0.054-0.588-0.004-0.896H1.878
			c-0.318,0-0.591-0.119-0.771-0.332c-0.179-0.215-0.248-0.504-0.191-0.816l0.732-4.116C1.783,20.884,2.522,20.12,3.263,19.965z
			 M27.116,26.983c0.106,0.602-0.036,1.172-0.401,1.61c-0.367,0.438-0.906,0.679-1.517,0.679H4.538c-0.61,0-1.149-0.242-1.516-0.679
			c-0.366-0.438-0.509-1.011-0.402-1.61l0.762-4.282c0.205-1.149,1.26-2.241,2.403-2.479l0.835-0.178v-9.425
			c0-7.076,3.742-9.766,8.358-9.766c4.617,0,8.36,2.689,8.36,9.766v9.473l0.611,0.129c1.144,0.238,2.197,1.331,2.402,2.479
			L27.116,26.983z M8.765,12.543c0.161,0.683,0.971,1.151,1.32,1.074c0.685,2.268,2.985,4.755,4.781,4.755
			c1.748,0,4.11-2.548,4.792-4.755c0.35,0.071,1.152-0.396,1.312-1.074c0.164-0.696,0.008-1.347-0.349-1.452
			c-0.104-0.03-0.216-0.008-0.323,0.055v-0.16h-3.877V7.361l-0.583,3.485H9.437v0.3c-0.108-0.062-0.218-0.085-0.324-0.055
			C8.757,11.197,8.602,11.847,8.765,12.543z M19.057,19.189l-0.458-0.939l-1.066,0.617l-0.604,0.351l-0.613,0.354l-0.866,0.501
			l0.219,0.448l0.383,0.78l1.35-0.78l0.923-0.533l0.604-0.349l0.273-0.159L19.057,19.189z M13.421,19.57l-0.613-0.354l-0.603-0.351
			l-1.067-0.617l-0.458,0.939l-0.143,0.29l0.274,0.159l0.604,0.349l0.922,0.533l1.35,0.78l0.382-0.78l0.219-0.448L13.421,19.57z
			 M26.199,27.147l-0.763-4.282c-0.139-0.778-0.906-1.571-1.678-1.731l-2.906-0.612l-1.167-0.246l-0.425,0.246l-3.177,1.837
			c-0.071,0.042-0.153,0.062-0.233,0.062c-0.045,0-0.091-0.006-0.136-0.02c-0.123-0.039-0.225-0.126-0.282-0.242l-0.563-1.15
			l-0.563,1.15c-0.056,0.116-0.159,0.203-0.282,0.242c-0.045,0.013-0.091,0.02-0.136,0.02c-0.081,0-0.162-0.021-0.233-0.062
			l-3.176-1.837l-0.425-0.246l-1.167,0.246l-2.906,0.612c-0.771,0.16-1.54,0.954-1.678,1.731l-0.762,4.282
			c-0.057,0.325,0.013,0.626,0.199,0.849c0.187,0.224,0.471,0.347,0.802,0.347h3.99v-2.312c0-0.257,0.208-0.465,0.466-0.465
			c0.257,0,0.466,0.208,0.466,0.465v2.312h10.816v-2.312c0-0.257,0.208-0.465,0.465-0.465c0.259,0,0.467,0.208,0.467,0.465v2.312
			h3.989c0.331,0,0.615-0.123,0.803-0.347C26.185,27.773,26.257,27.472,26.199,27.147z"/>
	</g>
</g>
<g>
</g>
<g>
</g>
<g>
</g>
<g>
</g>
<g>
</g>
<g>
</g>
<g>
</g>
<g>
</g>
<g>
</g>
<g>
</g>
<g>
</g>
<g>
</g>
<g>
</g>
<g>
</g>
<g>
</g>
</svg>
