<?xml version="1.0" encoding="iso-8859-1"?>
<!-- Generator: Adobe Illustrator 18.0.0, SVG Export Plug-In . SVG Version: 6.00 Build 0)  -->
<!DOCTYPE svg PUBLIC "-//W3C//DTD SVG 1.1//EN" "http://www.w3.org/Graphics/SVG/1.1/DTD/svg11.dtd">
<svg version="1.1" id="Capa_1" xmlns="http://www.w3.org/2000/svg" xmlns:xlink="http://www.w3.org/1999/xlink" x="0px" y="0px"
	 viewBox="0 0 292.039 292.039" style="enable-background:new 0 0 292.039 292.039;" xml:space="preserve">
<g>
	<path d="M263.225,29.885l-0.001-0.002c-1.58-1.683-39.301-41.052-92.365-26.767c-23.252,6.258-40.304,22.181-50.681,47.324
		c-2.573,6.235-10.378,8.787-27.84,9.103c-0.798,0.015-1.595,0.051-2.383,0.088c-1.371,0.063-3.919,0.183-4.289-0.164
		c-1.038-0.968-1.408-2.462-0.942-3.808c2.619-7.568,5.94-13.135,8.269-16.475c3.822-5.489,2.993-13.039-1.928-17.563l-6.189-5.688
		l-4.743-4.421c-3.047-2.843-7.155-4.093-11.271-3.442c-4.11,0.654-7.625,3.118-9.645,6.764
		c-4.899,8.851-12.449,23.096-15.403,28.758l-0.583,1.11c-22.555,42.838-26.241,85.9-10.956,127.992
		c13.876,38.207,36.365,71.436,63.326,93.563c20.697,16.985,41.941,25.782,61.555,25.781c6.757,0,13.323-1.045,19.604-3.158
		c23.571-7.933,39.912-34.779,46.014-75.594c5.227-34.96,1.839-76.392-8.842-108.126c-6.325-18.792-22.162-31.656-48.415-39.328
		c-1.23-0.359-2.215-1.247-2.702-2.436c-0.488-1.192-0.41-2.516,0.214-3.631c4.534-8.104,10.733-13.119,18.954-15.331
		c28.235-7.602,49.216,13.867,50.042,14.73c8.073,8.603,21.64,9.03,30.242,0.96C270.866,52.053,271.297,38.486,263.225,29.885z
		 M252,49.188c-2.571,2.411-6.625,2.284-9.093-0.344c-1.131-1.18-28.103-28.787-64.826-18.894
		c-12.156,3.271-21.626,10.839-28.145,22.491c-2.869,5.127-3.235,11.191-1.005,16.639c2.227,5.438,6.737,9.503,12.376,11.15
		c21.492,6.28,33.696,15.723,38.405,29.715c9.97,29.62,13.12,68.368,8.224,101.123c-5.151,34.457-18.26,57.637-35.964,63.595
		c-19.147,6.445-43.516-0.846-66.856-20.002c-24.911-20.444-45.773-51.373-58.743-87.087
		C32.591,129.622,35.998,90.634,56.502,51.692l0.61-1.163c3.187-6.107,9.806-18.562,14.26-26.676l8.538,7.891
		c-2.797,4.187-6.457,10.615-9.362,19.01c-2.404,6.948-0.484,14.675,4.889,19.685c4.988,4.651,10.898,4.375,15.215,4.176
		c0.648-0.03,1.304-0.062,1.959-0.073c11.918-0.216,34.104-0.617,41.433-18.378c8.505-20.605,22.203-33.58,40.714-38.563
		c44.465-11.967,76.183,21.114,77.53,22.548C254.699,42.72,254.57,46.775,252,49.188z"/>
	<path d="M64.071,129.851c-0.477-3.651-3.829-6.233-7.472-5.752c-3.653,0.474-6.23,3.819-5.756,7.471
		c0.26,2.008,6.687,49.521,33.705,79.918c1.3,1.461,3.096,2.216,4.909,2.238c1.602,0.019,3.215-0.536,4.508-1.684
		c2.753-2.448,3.001-6.663,0.554-9.417C70.268,175.344,64.13,130.302,64.071,129.851z"/>
	<circle cx="105.97" cy="227.261" r="7.04"/>
</g>
<g>
</g>
<g>
</g>
<g>
</g>
<g>
</g>
<g>
</g>
<g>
</g>
<g>
</g>
<g>
</g>
<g>
</g>
<g>
</g>
<g>
</g>
<g>
</g>
<g>
</g>
<g>
</g>
<g>
</g>
</svg>
