<?xml version="1.0" encoding="iso-8859-1"?>
<!-- Generator: Adobe Illustrator 19.0.0, SVG Export Plug-In . SVG Version: 6.00 Build 0)  -->
<svg version="1.1" id="Layer_1" xmlns="http://www.w3.org/2000/svg" xmlns:xlink="http://www.w3.org/1999/xlink" x="0px" y="0px"
	 viewBox="0 0 512 512" style="enable-background:new 0 0 512 512;" xml:space="preserve">
<g>
	<g>
		<g>
			<path d="M128,307.2c4.719,0,8.533-3.823,8.533-8.533V281.6c0-4.71-3.814-8.533-8.533-8.533c-4.719,0-8.533,3.823-8.533,8.533
				v17.067C119.467,303.377,123.281,307.2,128,307.2z"/>
			<path d="M384,273.067c-4.719,0-8.533,3.823-8.533,8.533v17.067c0,4.71,3.814,8.533,8.533,8.533c4.719,0,8.533-3.823,8.533-8.533
				V281.6C392.533,276.89,388.719,273.067,384,273.067z"/>
			<path d="M392.183,433.109c-0.162-0.606-0.418-1.152-0.7-1.715c-0.162-0.299-0.196-0.64-0.384-0.93
				c-0.094-0.128-0.23-0.196-0.324-0.324c-0.358-0.469-0.802-0.845-1.254-1.246c-0.418-0.375-0.819-0.742-1.306-1.016
				c-0.145-0.094-0.23-0.23-0.392-0.316l-34.133-17.067c-2.748-1.357-6.008-1.161-8.55,0.538l-51.209,34.133
				c-2.372,1.587-3.797,4.25-3.797,7.1v30.259c-5.077,4.062-17.545,12.407-34.133,12.407c-16.427,0-29.013-8.388-34.133-12.433
				v-30.234c0-2.85-1.425-5.513-3.797-7.1l-51.2-34.133c-2.543-1.698-5.803-1.894-8.55-0.538l-34.133,17.067
				c-0.154,0.077-0.239,0.213-0.375,0.299c-0.512,0.29-0.939,0.674-1.374,1.075c-0.435,0.384-0.853,0.734-1.186,1.178
				c-0.102,0.137-0.256,0.213-0.35,0.35c-0.205,0.307-0.239,0.657-0.401,0.99c-0.265,0.529-0.521,1.05-0.674,1.63
				c-0.137,0.529-0.179,1.05-0.205,1.596c-0.034,0.538-0.06,1.058,0.008,1.604c0.068,0.597,0.265,1.143,0.461,1.707
				c0.119,0.341,0.111,0.7,0.273,1.024c0.077,0.154,0.222,0.247,0.307,0.393c0.282,0.495,0.666,0.913,1.058,1.348
				c0.384,0.427,0.742,0.853,1.186,1.195c0.137,0.102,0.213,0.256,0.35,0.35l51.2,34.133c1.459,0.973,3.106,1.434,4.727,1.434
				c2.756,0,5.47-1.331,7.108-3.797c2.62-3.925,1.562-9.225-2.364-11.836l-38.972-25.975l16.555-8.277l43.281,28.851V486.4
				c0,2.261,0.896,4.437,2.5,6.033C208.102,493.235,227.2,512,256,512s47.898-18.765,48.7-19.567c1.604-1.596,2.5-3.772,2.5-6.033
				v-29.568l43.29-28.851l16.546,8.277l-38.972,25.975c-3.925,2.611-4.983,7.91-2.364,11.836c1.638,2.466,4.352,3.797,7.108,3.797
				c1.621,0,3.268-0.461,4.727-1.434l51.2-34.133c0.137-0.094,0.205-0.239,0.333-0.341c0.478-0.35,0.853-0.794,1.254-1.246
				c0.358-0.427,0.725-0.811,0.998-1.289c0.085-0.154,0.239-0.247,0.324-0.41c0.171-0.35,0.171-0.725,0.29-1.084
				c0.179-0.538,0.367-1.05,0.435-1.613c0.077-0.58,0.051-1.126,0.009-1.698C392.354,434.108,392.32,433.613,392.183,433.109z"/>
			<path d="M57.037,409.165c0.896,0.29,1.809,0.435,2.697,0.435c3.575,0,6.903-2.261,8.09-5.837
				C68.89,400.572,93.867,324.855,93.867,256v-76.8C93.867,45.193,182.033,17.067,256,17.067c25.199,0,77.636,0,85.649,11.128
				c0.333,0.452,0.828,1.135,0.128,3.243c-0.956,2.842-0.341,5.965,1.604,8.235c1.946,2.278,4.932,3.362,7.885,2.876
				c10.863-1.792,20.412,0.93,29.184,8.354c22.895,19.396,37.683,69.76,37.683,128.299V256c0,77.457,25.071,145.22,26.138,148.062
				c1.656,4.412,6.571,6.639,10.991,5.001c4.412-1.655,6.647-6.571,5.001-10.991C460.006,397.406,435.2,330.257,435.2,256v-76.8
				c0-50.415-11.486-114.014-43.716-141.321c-9.745-8.243-20.932-12.621-32.836-12.902c-0.683-2.773-1.903-5.035-3.149-6.767
				C343.356,1.374,303.258,0,256,0C140.442,0,76.8,63.642,76.8,179.2V256c0,66.039-24.909,141.611-25.156,142.37
				C50.15,402.842,52.565,407.672,57.037,409.165z"/>
			<path d="M91.802,426.923C19.814,444.919,1.195,498.492,0.444,500.77c-1.493,4.471,0.922,9.301,5.393,10.795
				C6.733,511.864,7.646,512,8.533,512c3.576,0,6.904-2.261,8.09-5.837c0.162-0.469,16.316-46.942,79.309-62.686
				c4.574-1.143,7.356-5.777,6.212-10.351C101.001,428.561,96.367,425.771,91.802,426.923z"/>
			<path d="M213.333,238.933c4.719,0,8.533-3.823,8.533-8.533v-5.615c0.546,0.529,0.922,0.964,0.964,1.024
				c1.519,2.918,4.497,4.591,7.578,4.591c1.323,0,2.671-0.307,3.934-0.964c4.173-2.176,5.803-7.33,3.627-11.511
				c-2.534-4.873-10.59-13.124-24.636-13.124c-14.046,0-22.101,8.252-24.636,13.124c-2.125,4.087-0.546,8.969,3.456,11.23
				c3.985,2.261,9.148,0.819,11.554-3.123c0.085-0.128,0.503-0.623,1.092-1.195v5.564C204.8,235.11,208.614,238.933,213.333,238.933
				z"/>
			<path d="M511.556,500.77c-0.751-2.278-19.371-55.851-91.358-73.847c-4.574-1.161-9.199,1.638-10.342,6.204
				c-1.143,4.574,1.638,9.207,6.212,10.351c62.524,15.633,78.66,60.809,79.309,62.686c1.186,3.576,4.514,5.837,8.09,5.837
				c0.888,0,1.801-0.137,2.697-0.435C510.635,510.071,513.05,505.242,511.556,500.77z"/>
			<path d="M256,332.8c20.028,0,30.507-9.907,31.633-11.034c3.294-3.294,3.285-8.567,0.051-11.913
				c-3.251-3.345-8.61-3.439-12.015-0.247c-0.273,0.247-6.707,6.127-19.669,6.127c-12.774,0-19.208-5.709-19.652-6.118
				c-3.32-3.251-8.67-3.226-11.981,0.085c-3.337,3.337-3.337,8.73,0,12.066C225.493,322.893,235.972,332.8,256,332.8z"/>
			<path d="M298.667,238.933c4.719,0,8.533-3.823,8.533-8.533v-5.615c0.546,0.529,0.922,0.964,0.964,1.024
				c1.519,2.918,4.497,4.591,7.578,4.591c1.323,0,2.671-0.307,3.934-0.964c4.173-2.176,5.803-7.33,3.627-11.511
				c-2.534-4.873-10.59-13.124-24.636-13.124c-14.046,0-22.101,8.252-24.636,13.124c-2.125,4.087-0.546,8.969,3.456,11.23
				c3.994,2.261,9.156,0.819,11.554-3.123c0.085-0.128,0.503-0.623,1.092-1.195v5.564
				C290.133,235.11,293.948,238.933,298.667,238.933z"/>
			<path d="M389.129,189.449c-8.542-6.443-30.729-26.957-30.729-44.382c0-4.71-3.814-8.533-8.533-8.533s-8.533,3.823-8.533,8.533
				c0,24.678,24.354,47.249,34.014,55.228c-1.835,33.476-24.917,95.223-33.118,111.625c-7.654,15.317-48.154,63.548-86.229,63.548
				s-78.575-48.23-86.229-63.548c-8.542-17.084-33.237-83.379-33.237-115.652v-25.728c33.835-0.802,157.321-6.929,218.453-52.779
				c3.772-2.825,4.54-8.175,1.707-11.947c-2.825-3.772-8.175-4.54-11.947-1.707C279.561,152.994,129.51,153.6,128,153.6
				c-4.719,0-8.533,3.823-8.533,8.533v34.133c0,36.625,26.871,106.965,35.029,123.281c10.385,20.77,55.834,72.986,101.504,72.986
				s91.119-52.216,101.504-72.986c8.158-16.316,35.029-86.656,35.029-123.281C392.533,193.587,391.27,191.061,389.129,189.449z"/>
		</g>
	</g>
</g>
<g>
</g>
<g>
</g>
<g>
</g>
<g>
</g>
<g>
</g>
<g>
</g>
<g>
</g>
<g>
</g>
<g>
</g>
<g>
</g>
<g>
</g>
<g>
</g>
<g>
</g>
<g>
</g>
<g>
</g>
</svg>
