<svg xmlns="http://www.w3.org/2000/svg" width="512" height="512"><path d="M460.5 410.6C444 394.1 422.3 385 399.3 385h-38.9c4.5-3.6 8.8-7.5 12.9-11.6C404.7 342 422 300.3 422 256c0-42.3-15.8-82.2-44.5-113l41.1-41.1c1.1-1.1 1.8-2.6 1.8-4.2s-.6-3.1-1.8-4.2C375.2 49.9 317.4 26 256 26S136.8 49.9 93.4 93.4c-1.1 1.1-1.8 2.6-1.8 4.2s.6 3.1 1.8 4.2l41.1 41.1C105.8 173.8 90 213.7 90 256c0 44.3 17.3 86 48.6 117.4 4.1 4.1 8.4 8 12.9 11.6h-38.9c-22.9 0-44.7 9.1-61.2 25.6C35 427.1 26 448.9 26 472.1v7.9c0 3.3 2.7 6 6 6h448c3.3 0 6-2.7 6-6v-7.9c0-23.2-9-45-25.5-61.5zM106.2 97.7C146.8 59.1 199.8 38 256 38s109.2 21.1 149.8 59.7L369 134.5c-28.4-24.8-65.5-24.7-104.6-24.5h-16.7c-39.2-.1-76.3-.2-104.6 24.5l-36.9-36.8zm40.9 267.2C118 335.8 102 297.1 102 256s16-79.8 45.1-108.9c25.4-25.4 60.2-25.3 100.5-25.1h16.8c40.3-.1 75.1-.2 100.5 25.1C394 176.2 410 214.9 410 256c0 41.1-16 79.8-45.1 108.9-7.3 7.3-15.3 13.8-23.9 19.5-8-2.1-18.8-10.1-26.3-21.3 6.9-6.3 13.4-13.7 19.3-22.1 8.2-11.8 15.1-25.2 20.4-39.9 23-1 47.8-19.4 47.8-43.8V255c0-12.5.1-24.3-8.1-32.5-6.1-6.1-17.8-9.4-32-9.4-14.4 0-50.2-42.4-71.1-72.4a6.15 6.15 0 0 0-5.3-2.6c-2.1.1-4 1.3-5 3.2-.1.2-9.9 18.3-30.9 36.1C221.9 201 188.3 213 150 213c-14.2 0-25.9 3.3-32 9.4-8.2 8.2-8.2 20-8.1 32.5v2.3c0 24 24 42.2 46.7 43.7 5 14.7 11.5 28.1 19.5 39.9 5.9 8.7 12.4 16.3 19.4 22.6-7.2 12.5-16.5 19.2-24.3 21-8.7-5.6-16.8-12.2-24.1-19.5zm57.7 6.3c15.4 11 32.8 16.8 51.2 16.8 17.1 0 34-6.1 49.4-17.3C315.9 386 332.1 397 345 397h6c-17.8 36.1-54.3 59-95 59s-77.3-22.9-95-59h6c13.8 0 28.1-9.9 37.8-25.8zm-48.7-146.3c48.3-1.6 82-21.8 101.9-38.8 13.9-11.9 23.2-23.8 28.3-31.3 5.3 7.2 14.1 18.9 24.1 30.6 19.1 22.4 34.1 35.1 45.5 38.6-.8 42.8-12 81.8-31.8 110.1-18.5 26.6-43.4 41.9-68.1 41.9-17.8 0-34.1-6.2-48.1-17.5-.6-.8-1.3-1.4-2.2-1.9h-.1c-29.4-25.2-48.3-72.9-49.5-131.7zm202.4 63.6c5.7-19.5 8.9-40.8 9.5-63.1 8.6.4 14.4 2.2 17.6 5.4 4.7 4.7 4.7 13.7 4.6 24v2.3c0 15.8-16.2 28.7-31.7 31.4zm-232-57.6c3.2-3.2 9-5 17.6-5.4.5 22.6 3.4 43.7 8.5 62.9-15.3-3.1-30.8-15.8-30.8-31.1V255c0-10.5 0-19.4 4.7-24.1zM474 474H38v-1.9c0-20 7.8-38.8 22-53 14.3-14.3 33-22.1 52.7-22.1h35.1c8.8 20.3 23.1 37.7 41.5 50.3C209 460.9 232 468 256 468s47-7.1 66.7-20.7c18.4-12.6 32.7-30 41.5-50.3h35.1c19.7 0 38.5 7.9 52.7 22.1 14.2 14.2 22 33 22 53v1.9z"/><path d="M280 74c0 3.3-2.7 6-6 6h-12v12c0 3.3-2.7 6-6 6s-6-2.7-6-6V80h-12c-3.3 0-6-2.7-6-6s2.7-6 6-6h12V56c0-3.3 2.7-6 6-6s6 2.7 6 6v12h12c3.3 0 6 2.7 6 6z"/></svg>