<svg xmlns="http://www.w3.org/2000/svg" fill-rule="evenodd" stroke-linejoin="round" stroke-miterlimit="2" clip-rule="evenodd" viewBox="0 0 32 32"><g transform="scale(.21157 .17778)"><rect width="151.25" height="180" fill="none"/><path d="M130.962,7.875C130.962,6.322 129.67,5.063 128.077,5.063C123.42,5.063 111.58,5.063 106.923,5.063C105.33,5.063 104.038,6.322 104.038,7.875C104.038,10.757 104.038,16.243 104.038,19.125C104.038,20.678 105.33,21.937 106.923,21.937C111.58,21.938 123.42,21.938 128.077,21.938C129.67,21.937 130.962,20.678 130.962,19.125L130.962,7.875ZM129.038,7.875C129.038,7.357 128.608,6.938 128.077,6.938C123.42,6.938 111.58,6.938 106.923,6.937C106.392,6.938 105.962,7.357 105.962,7.875C105.962,10.757 105.962,16.243 105.962,19.125C105.962,19.643 106.392,20.062 106.923,20.062C111.58,20.063 123.42,20.063 128.077,20.063C128.608,20.062 129.038,19.643 129.038,19.125L129.038,7.875Z" transform="matrix(4.91563 0 0 6 -501.961 9)"/><path d="M129,1L129,31C129,31.552 129.448,32 130,32C130.552,32 131,31.552 131,31L131,1C131,0.448 130.552,0 130,0C129.448,-0 129,0.448 129,1Z" transform="matrix(4.72656 0 0 5.625 -496.289 0)"/><path d="M126,2L134,2C134.552,2 135,1.552 135,1C135,0.448 134.552,0 134,0L126,0C125.448,0 125,0.448 125,1C125,1.552 125.448,2 126,2Z" transform="matrix(4.72656 0 0 5.625 -496.289 0)"/><path d="M126,2L134,2C134.552,2 135,1.552 135,1C135,0.448 134.552,0 134,0L126,0C125.448,0 125,0.448 125,1C125,1.552 125.448,2 126,2Z" transform="matrix(4.72656 0 0 5.625 -496.289 168.75)"/><path d="M3.582,66L3.582,70C3.582,70.783 4.217,71.418 5,71.418C5.783,71.418 6.418,70.783 6.418,70L6.418,66C6.418,65.217 5.783,64.582 5,64.582C4.217,64.582 3.582,65.217 3.582,66Z" transform="matrix(2.35677 2.80476 -2.35677 2.80476 186.29 -114.748)"/><path d="M3.582,66L3.582,70C3.582,70.783 4.217,71.418 5,71.418C5.783,71.418 6.418,70.783 6.418,70L6.418,66C6.418,65.217 5.783,64.582 5,64.582C4.217,64.582 3.582,65.217 3.582,66Z" transform="matrix(-2.35677 2.80476 -2.35677 -2.80476 209.857 266.7)"/><path d="M3.582,66L3.582,70C3.582,70.783 4.217,71.418 5,71.418C5.783,71.418 6.418,70.783 6.418,70L6.418,66C6.418,65.217 5.783,64.582 5,64.582C4.217,64.582 3.582,65.217 3.582,66Z" transform="matrix(2.35677 2.80476 -2.35677 2.80476 214.649 -114.747)"/><path d="M3.582,66L3.582,70C3.582,70.783 4.217,71.418 5,71.418C5.783,71.418 6.418,70.783 6.418,70L6.418,66C6.418,65.217 5.783,64.582 5,64.582C4.217,64.582 3.582,65.217 3.582,66Z" transform="matrix(-2.35677 2.80476 -2.35677 -2.80476 238.217 266.702)"/><path d="M3.582,66L3.582,70C3.582,70.783 4.217,71.418 5,71.418C5.783,71.418 6.418,70.783 6.418,70L6.418,66C6.418,65.217 5.783,64.582 5,64.582C4.217,64.582 3.582,65.217 3.582,66Z" transform="matrix(2.35677 2.80476 -2.35677 2.80476 243.008 -114.746)"/><path d="M3.582,66L3.582,70C3.582,70.783 4.217,71.418 5,71.418C5.783,71.418 6.418,70.783 6.418,70L6.418,66C6.418,65.217 5.783,64.582 5,64.582C4.217,64.582 3.582,65.217 3.582,66Z" transform="matrix(-2.35677 2.80476 -2.35677 -2.80476 266.576 266.701)"/></g></svg>