<svg xmlns="http://www.w3.org/2000/svg" viewBox="0 0 64 64"><path d="M53.606,25.748l4.371-4.37a6.919,6.919,0,0,0,0-9.77L52.392,6.023a6.908,6.908,0,0,0-9.769,0L39.666,8.98l-3.485,3.485h0L7.765,40.88l0,0-1.04,1.04a.992.992,0,0,0-.286.6L4.692,58.2a1.008,1.008,0,0,0,1.1,1.1L21.48,57.564a.993.993,0,0,0,.6-.287l1.043-1.043,0,0L51.535,27.819ZM44.037,7.438a4.907,4.907,0,0,1,6.941,0l5.585,5.584a4.916,4.916,0,0,1,0,6.942L53.606,22.92l-6.263-6.263L41.08,10.394ZM22.948,53.577l-.518-3.623L46.636,25.748l2.071,2.071ZM45.221,24.334,21.016,48.54l-4.862-.694-.694-4.862,8.069-8.068L39.666,18.778l2.778,2.778Zm-34.8,16.718L36.181,15.293l.22.22,1.85,1.851L22.114,33.5,14.046,41.57Zm-3.045,11.1a6.353,6.353,0,0,1,4.469,4.47l-5.029.56ZM13.851,56.4A8.346,8.346,0,0,0,7.6,50.149l.785-7.059.27-.27,4.862.7.752,5.264a1.128,1.128,0,0,0,.952.953l5.265.752.7,4.861-.27.27Zm34.2-32.066h0l-.893-.893-.521-.521h0l-2.778-2.778L37.6,13.879l2.071-2.07,6.263,6.262,6.263,6.263-2.071,2.071Z" data-name="Original copy"/></svg>