<svg xmlns="http://www.w3.org/2000/svg" viewBox="0 0 32 32"><g data-name="people"><ellipse cx="16" cy="6.8" rx="2.75" ry="2.86"/><path d="M17.68 10.1H14.32a3.37 3.37 0 0 0-3.51 3.22v4.35A2.49 2.49 0 0 0 12.48 20V25.8a2 2 0 0 0 1.84 2.07h3.36a2 2 0 0 0 1.84-2.07V20a2.49 2.49 0 0 0 1.67-2.31V13.32A3.37 3.37 0 0 0 17.68 10.1zM6 10.46A1.67 1.67 0 1 0 4.39 8.79 1.64 1.64 0 0 0 6 10.46zM7.2 11.26H4.8A2.68 2.68 0 0 0 2 13.79v3a2 2 0 0 0 1.5 1.91v3.81A1.65 1.65 0 0 0 5 24.26H7.09a1.65 1.65 0 0 0 1.52-1.78V18.64A2 2 0 0 0 10 16.76v-3A2.68 2.68 0 0 0 7.2 11.26zM26 10.46a1.67 1.67 0 1 0-1.61-1.67A1.64 1.64 0 0 0 26 10.46zM27.2 11.26H24.8A2.68 2.68 0 0 0 22 13.79v3a2 2 0 0 0 1.5 1.91v3.81A1.65 1.65 0 0 0 25 24.26h2.07a1.65 1.65 0 0 0 1.52-1.78V18.64A2 2 0 0 0 30 16.76v-3A2.68 2.68 0 0 0 27.2 11.26z"/></g></svg>