<svg xmlns="http://www.w3.org/2000/svg" viewBox="0 0 32 32"><path fill="#607d95" d="M24 14.1v-3.6c0-.6-.4-1-1-1H12c-.6 0-1 .4-1 1v3.6c0 .9-.6 1.6-1.4 1.9l-.5.2c-.7.2-1.2.8-1.3 1.5l-1.3 6.5c-.2 1.2.7 2.4 2 2.4h18.1c1.3 0 2.2-1.2 2-2.4l-1.3-6.5c-.1-.7-.6-1.3-1.3-1.5l-.6-.2c-.8-.3-1.4-1.1-1.4-1.9z"/><path fill="#607d95" d="M27.1 7.3c-2-1.2-4.3-1.8-6.6-1.8h-5.9c-2.3 0-4.6.6-6.6 1.8-1.3.8-2 2.1-2 3.5v2.7c0 .6.4 1 1 1h3.2c.3 0 .6-.2.8-.4v-3.6c0-.6.4-1 1-1h11c.6 0 1 .4 1 1v3.6c.2.3.5.4.8.4H28c.6 0 1-.4 1-1v-2.7c0-1.4-.7-2.7-1.9-3.5z"/><path fill="#4b6c85" d="M8 13.5v-2.7c0-1.4.7-2.7 1.9-3.4 2-1.2 4.3-1.8 6.6-1.8h-2c-2.3 0-4.6.6-6.6 1.8-1.2.7-1.9 2-1.9 3.4v2.7c0 .6.4 1 1 1h2c-.6 0-1-.4-1-1zm18 .6v-3.6c0-.6-.4-1-1-1h-2c.6 0 1 .4 1 1v3.6c.2.3.5.4.8.4h2c-.3 0-.6-.2-.8-.4z"/><path fill="#4b6c85" d="M24 11.5v2.6c.2.3.5.4.8.4H28c.6 0 1-.4 1-1v-2h-5z"/><path fill="#40657c" d="M26 12.3v-.8h-2v2.6c.2.3.5.4.8.4H28c.6 0 1-.4 1-1v-.2h-2c-.6 0-1-.5-1-1z"/><path fill="#4b6c85" d="m28.5 24.1-.3-1.6H10c-.6 0-1.1-.6-1-1.2l.7-3.7c.1-.7.6-1.3 1.3-1.5l.5-.2c.8-.3 1.4-1 1.4-1.9v-3.6c0-.6.4-1 1-1h-2c-.6 0-1 .4-1 1V14c0 .9-.6 1.6-1.4 1.9l-.5.2c-.7.2-1.2.8-1.3 1.5l-1 4.9-.3 1.6v.4h22.1c.1.1.1-.1 0-.4z"/><circle cx="17.5" cy="17" r="2.5" fill="#b0c4da"/><path fill="#99b5ce" d="M16.5 16.5c0-.8.4-1.5 1-2-1.4 0-2.5 1.1-2.5 2.5s1.1 2.5 2.5 2.5c.6 0 1.1-.2 1.5-.5-1.4 0-2.5-1.1-2.5-2.5z"/><path fill="#eef2fa" d="M17.5 12.5c-2.5 0-4.5 2-4.5 4.5s2 4.5 4.5 4.5 4.5-2 4.5-4.5-2-4.5-4.5-4.5zm0 7c-1.4 0-2.5-1.1-2.5-2.5s1.1-2.5 2.5-2.5S20 15.6 20 17s-1.1 2.5-2.5 2.5z"/><path fill="#b0c4da" d="M19.5 20.5c-1.2 0-2.3-.5-3.2-1.3-.8-.4-1.3-1.2-1.3-2.2 0-.2 0-.3.1-.5 0-.2-.1-.3-.1-.5 0-1.4.6-2.6 1.6-3.4-2.1.4-3.6 2.2-3.6 4.4 0 2.5 2 4.5 4.5 4.5 1.1 0 2.1-.4 2.9-1.1-.3.1-.6.1-.9.1z"/><path fill="#40657c" d="M6.4 24.5c0 1.1.9 2 2 2h18.1c1.1 0 2-.9 2-2H6.4z"/><path fill="#4b6c85" d="M6 11.5v2c0 .6.4 1 1 1h3.2c.3 0 .6-.2.8-.4v-2.6H6z"/><path fill="#40657c" d="M9 13.3c-.6 0-1-.4-1-1v-.8H6v2c0 .6.4 1 1 1h3.2c.3 0 .6-.2.8-.4v-.8H9z"/><path fill="#004463" d="M28.5 25h-22c-.3 0-.5-.2-.5-.5s.2-.5.5-.5h22c.3 0 .5.2.5.5s-.2.5-.5.5zm-6-7.5h-2.1c-.3 0-.5-.2-.5-.5s.2-.5.5-.5h2.1c.3 0 .5.2.5.5s-.2.5-.5.5zm2-5.5c-.3 0-.5-.2-.5-.5s.2-.5.5-.5h4c.3 0 .5.2.5.5s-.2.5-.5.5h-4zm-14 0h-4c-.3 0-.5-.2-.5-.5s.2-.5.5-.5h4c.3 0 .5.2.5.5s-.2.5-.5.5z"/><path fill="#004463" d="M26.6 27H8.4c-.8 0-1.5-.3-1.9-.9-.5-.6-.7-1.4-.5-2.1l1.3-6.5c.2-.9.8-1.6 1.7-1.9l.5-.2c.6-.2 1-.8 1-1.4v-3.6c0-.7.7-1.4 1.5-1.4h11c.8 0 1.5.7 1.5 1.5v3.6c0 .6.4 1.2 1 1.4l.5.2c.8.3 1.5 1 1.7 1.9L29 24c.1.7 0 1.5-.5 2.1-.5.6-1.2.9-1.9.9zM12 10c-.3 0-.5.2-.5.5v3.6c0 1.1-.7 2-1.7 2.4l-.5.2c-.5.2-.9.6-1 1.1L7 24.2c-.1.4 0 .9.3 1.2s.7.6 1.1.6h18.1c.5 0 .9-.2 1.2-.5s.4-.8.3-1.2l-1.3-6.5c-.1-.5-.5-1-1-1.1l-.5-.2c-1-.3-1.7-1.3-1.7-2.4v-3.6c0-.3-.2-.5-.5-.5H12z"/><path fill="#004463" d="M17.5 22c-2.8 0-5-2.2-5-5s2.2-5 5-5 5 2.2 5 5-2.2 5-5 5zm0-9c-2.2 0-4 1.8-4 4s1.8 4 4 4 4-1.8 4-4-1.8-4-4-4z"/><path fill="#004463" d="M17.5 20c-1.7 0-3-1.3-3-3s1.3-3 3-3 3 1.3 3 3-1.3 3-3 3zm0-5c-1.1 0-2 .9-2 2s.9 2 2 2 2-.9 2-2-.9-2-2-2z"/><path fill="#004463" d="M28 15h-3.2c-.5 0-1-.2-1.2-.7-.1-.1-.1-.2-.1-.3v-3.6c0-.3-.2-.5-.5-.5H12c-.3 0-.5.2-.5.5V14c0 .1 0 .2-.1.3-.3.4-.7.7-1.2.7H7c-.8 0-1.5-.7-1.5-1.5v-2.7c0-1.6.8-3.1 2.2-3.9C9.8 5.7 12.1 5 14.6 5h5.9c2.4 0 4.8.7 6.9 1.9 1.3.8 2.2 2.3 2.2 3.9v2.7c-.1.8-.8 1.5-1.6 1.5zm-3.5-1.1c.1.1.2.1.3.1H28c.3 0 .5-.2.5-.5v-2.7c0-1.2-.7-2.4-1.7-3C24.9 6.6 22.7 6 20.4 6h-5.9c-2.2 0-4.4.6-6.4 1.8-1 .6-1.7 1.8-1.7 3v2.7c.1.3.3.5.6.5h3.2c.1 0 .2 0 .3-.1v-3.4c0-.8.7-1.5 1.5-1.5h11c.8 0 1.5.7 1.5 1.5v3.4zM4 22c-.8 0-1.5-.7-1.5-1.5S3.2 19 4 19c.3 0 .5.2.5.5s-.2.5-.5.5-.5.2-.5.5.2.5.5.5.5.2.5.5-.2.5-.5.5z"/><path fill="#004463" d="M4 24c-.8 0-1.5-.7-1.5-1.5S3.2 21 4 21c.3 0 .5.2.5.5s-.2.5-.5.5-.5.2-.5.5.2.5.5.5.5.2.5.5-.2.5-.5.5zm0-4c-.8 0-1.5-.7-1.5-1.5S3.2 17 4 17c.3 0 .5.2.5.5s-.2.5-.5.5-.5.2-.5.5.2.5.5.5.5.2.5.5-.2.5-.5.5z"/><path fill="#004463" d="M4 18c-.8 0-1.5-.7-1.5-1.5S3.2 15 4 15c.3 0 .5.2.5.5s-.2.5-.5.5-.5.2-.5.5.2.5.5.5.5.2.5.5-.2.5-.5.5z"/><path fill="#004463" d="M4 16c-.3 0-.5-.2-.5-.5v-1c0-.8.7-1.5 1.5-1.5h1c.3 0 .5.2.5.5s-.2.5-.5.5H5c-.3 0-.5.2-.5.5v1c0 .3-.2.5-.5.5z"/></svg>