<?xml version="1.0" encoding="iso-8859-1"?>
<!-- Generator: Adobe Illustrator 19.0.0, SVG Export Plug-In . SVG Version: 6.00 Build 0)  -->
<svg version="1.1" id="Layer_1" xmlns="http://www.w3.org/2000/svg" xmlns:xlink="http://www.w3.org/1999/xlink" x="0px" y="0px"
	 viewBox="0 0 512 512" style="enable-background:new 0 0 512 512;" xml:space="preserve">
<g>
	<g>
		<circle cx="232.522" cy="42.143" r="42.143"/>
	</g>
</g>
<g>
	<g>
		<path d="M184.412,389.728c-1.899-1.163-3.893-2.384-5.955-3.648V487.6c0,13.475,10.924,24.4,24.4,24.4
			c13.475,0,24.4-10.924,24.4-24.4V384.998C215.559,396.317,197.901,397.989,184.412,389.728z"/>
	</g>
</g>
<g>
	<g>
		<path d="M263.981,302.229c-16.599,0-33.151-5.139-47.865-9.627c0.873,17.088,8.157,34.44,16.896,49.073
			c3.781,6.332,5.601,13.891,4.78,21.712V487.6c0,13.475,10.924,24.4,24.4,24.4c13.475,0,24.4-10.924,24.4-24.4V298.426
			C279.297,301.115,271.755,302.229,263.981,302.229z"/>
	</g>
</g>
<g>
	<g>
		<path d="M199.017,106.046l-3.119-8.333h-17.954c-26.4,0-47.984,21.478-48.118,47.877l-0.069,13.755
			c2.945-1.099,5.542-2.006,9.791-3.066c8.692-2.166,17.957-3.22,28.322-3.22c2.51,0,5.821,0.08,9.038,0.258
			c-2.341-3.916-3.77-8.259-4.261-12.716c-0.664-6.028,0.383-12.257,3.296-17.901C180.61,113.666,189.187,107.586,199.017,106.046z"
			/>
	</g>
</g>
<g>
	<g>
		<path d="M366.022,123.698c-12.755-10.197-21.304-17.032-34.053-27.225c-7.395-5.913-18.333-4.785-24.331,2.688l-2.385,2.97
			c-8.998-5.782-20.562-6.976-30.818-2.62c-11.139,4.752-19.175,15.518-19.948,28.292l8.066,4.164l6.288-1.622
			c-0.116-4.264,1.215-8.589,4.107-12.168c3.67-4.541,9.041-6.901,14.457-6.901c6.861,0,13.248,3.799,16.473,10.032l10.246-2.643
			l-53.417,29.713l-49.397-25.507c-7.81-4.03-17.553-1.037-21.654,6.906c-3.202,6.201-1.995,13.572,2.63,18.45
			c2.334,2.468,13.44,8.015,62.422,33.243c4.774,2.459,10.491,2.352,15.164-0.292c9.349-5.289,26.302-15.01,57.814-33.105
			l-10.747,10.116c4.517,3.65,10.103,8.162,19.979,16.142l-17.976,12.276l-17.324-13.997l-11.103,10.45l14.219,11.489l23.422,4.059
			l17.281-11.801c5.431-3.709,7.917-10.625,5.875-17.05l17.403-21.681C374.628,140.71,373.587,129.745,366.022,123.698z"/>
	</g>
</g>
<g>
	<g>
		<path d="M302.492,249.854c-4.242,7.87-11.323,14.544-22.496,20.49c-4.661,2.481-10.096,3.46-15.945,3.46
			c-22.054,0-49.96-13.943-64.212-13.943c-4.583,0-7.757,1.444-8.865,5.256c-9.955,34.217,4.088,68.422,17.644,91.123
			c1.6,2.679,1.159,6.106-1.061,8.299c-2.219,2.192-5.647,2.589-8.308,0.959c-34.285-20.997-89.761-55.024-112.212-69.089
			c-6.176-3.869-9.37-11.116-8.059-18.285c4.402-24.06,18.822-77.259,61.691-92.547c29.685-10.587,70.004,2.723,84.879,2.723
			c2.721,0,5.325-0.184,7.83-0.513l-36.775-18.971l-0.008-0.003c-17.632-2.654-36.424-3.961-53.829,0.378
			c-46.031,11.474-70.112,59.555-78.648,106.217c-2.457,13.432,3.516,26.673,14.899,33.804c1.122,0.703,2.35,1.47,3.633,2.271
			l-6.159,11.839l-1.522,3.634c-4.494,10.731,0.561,23.074,11.293,27.568c9.864,4.131,21.106,0.198,26.35-8.865l6.638-11.537
			c3.961,2.439,8.018,4.936,12.124,7.461l-6.482,11.633c-1.995,3.367-4.508,6.327-7.406,8.814
			c2.155,4.336,5.796,7.962,10.603,10.005c7.518,3.198,15.963,1.722,21.938-3.383l7.45-11.038
			c12.476,7.655,24.301,14.901,33.884,20.77c8.607,5.271,20.173,4.088,27.497-3.831c6.657-7.199,7.681-17.762,2.73-26.054
			c-13.322-22.308-22.043-47.405-17.588-73.019c14.931,3.038,38.56,13.448,59.98,13.448c8.166,0,16.031-1.536,23.112-5.244
			c15.134-8.054,25.164-18.015,30.697-30.87L302.492,249.854z"/>
	</g>
</g>
<g>
	<g>
		<path d="M401.393,37.86c-16.703-13.382-41.092-10.691-54.475,6.012c-13.435,16.768-10.614,41.154,6.012,54.475
			c16.644,13.337,41.053,10.739,54.475-6.011C420.787,75.632,418.096,51.243,401.393,37.86z"/>
	</g>
</g>
<g>
	<g>
		<path d="M447.043,258.7c-28.086-36.429-39.968-72.839-35.314-108.215c3.388-25.757,14.81-41.616,15.431-42.46
			c10.638-13.324,15.467-29.989,13.596-46.94c-1.874-16.987-10.251-32.227-23.588-42.914c-7.231-5.794-15.421-9.871-24.342-12.118
			c-3.566-0.9-7.179,1.263-8.076,4.826c-0.898,3.562,1.264,7.178,4.826,8.076c7.057,1.777,13.542,5.007,19.273,9.599
			c21.807,17.472,25.334,49.429,7.861,71.237c-0.031,0.04-0.063,0.08-0.093,0.12c-0.565,0.738-13.878,18.433-17.969,48.031
			c-3.731,26.991-0.192,69.526,37.858,118.881c2.246,2.911,6.422,3.448,9.33,1.206C448.746,265.787,449.287,261.609,447.043,258.7z"
			/>
	</g>
</g>
<g>
	<g>
		<path d="M248.423,87.924l-15.9,8.742l-15.9-8.742c-1.965-1.08-4.377,0.344-4.377,2.589c0,12.392,0,7.744,0,19.913
			c0,2.242,2.409,3.67,4.377,2.589c5.205-2.862,4.263-2.344,15.9-8.742c9.603,5.28,10.701,5.884,15.9,8.742
			c1.965,1.08,4.377-0.344,4.377-2.589V90.513C252.8,88.271,250.391,86.843,248.423,87.924z"/>
	</g>
</g>
<g>
	<g>
		<path d="M364.714,220.777l-9.314-24.878c-1.622,1.393-1.265,1.08-15.069,10.505c-2.227-0.371-59.377-9.892-62.307-10.38
			c-11.072-1.84-21.551,5.638-23.399,16.715c-1.845,11.077,5.639,21.552,16.715,23.398l69.804,11.628
			c10.011,1.667,17.57-2.123,21.937-9.37C366.325,233.017,366.858,226.509,364.714,220.777z"/>
	</g>
</g>
<g>
</g>
<g>
</g>
<g>
</g>
<g>
</g>
<g>
</g>
<g>
</g>
<g>
</g>
<g>
</g>
<g>
</g>
<g>
</g>
<g>
</g>
<g>
</g>
<g>
</g>
<g>
</g>
<g>
</g>
</svg>
