<?xml version="1.0" encoding="iso-8859-1"?>
<!-- Generator: Adobe Illustrator 16.0.0, SVG Export Plug-In . SVG Version: 6.00 Build 0)  -->
<!DOCTYPE svg PUBLIC "-//W3C//DTD SVG 1.1//EN" "http://www.w3.org/Graphics/SVG/1.1/DTD/svg11.dtd">
<svg version="1.1" id="Capa_1" xmlns="http://www.w3.org/2000/svg" xmlns:xlink="http://www.w3.org/1999/xlink" x="0px" y="0px"
	 width="888px" height="888px" viewBox="0 0 888 888" style="enable-background:new 0 0 888 888;" xml:space="preserve">
<g>
	<g>
		<path d="M526.35,606.2v0.1c-3.8,10.4,1.5,21.9,11.8,25.7c2.3,0.8,4.601,1.2,6.9,1.2c8.1,0,15.8-5,18.8-13.101
			c0.1-0.3,0.2-0.5,0.3-0.8c3.601-10.399-1.8-21.8-12.3-25.5C541.35,590.3,529.95,595.8,526.35,606.2z"/>
		<path d="M444.45,641h-0.899c-11,0-20,9-20,20s9,20,20,20h1.2c11-0.1,19.899-9.1,19.899-20.1c-0.1-11-9-19.9-20-19.9
			C444.55,641,444.45,641,444.45,641z"/>
		<path d="M494.95,631.8l-0.8,0.3c-10.3,4-15.3,15.601-11.3,25.9c3.1,7.9,10.6,12.7,18.6,12.7c2.4,0,4.9-0.4,7.301-1.4l1.1-0.399
			c10.3-4.101,15.2-15.801,11.1-26C516.85,632.6,505.15,627.7,494.95,631.8z"/>
		<path d="M392.85,632.2c-10.3-4-21.9,1.1-25.9,11.399c-4,10.301,1.101,21.9,11.4,25.9c0.4,0.2,0.8,0.3,1.2,0.4
			c2.3,0.899,4.7,1.3,7.1,1.3c8.101,0,15.7-4.9,18.7-12.9c3.9-10.3-1.3-21.899-11.6-25.8L392.85,632.2z"/>
		<path d="M334.65,595.5c-10.3,4-15.3,15.6-11.3,25.9l0.3,0.699c3.2,7.801,10.601,12.5,18.5,12.5c2.5,0,5-0.5,7.5-1.5
			c10.2-4.1,15.2-15.8,11-26l-0.1-0.3C356.55,596.5,344.95,591.4,334.65,595.5z"/>
		<path d="M281.85,527.9c44.2,39.5,100.6,61.199,160.4,61.199c57.6,0,112.199-20.1,155.6-57c25.1,67.601,137,62.601,137,62.601
			V296.2C734.85,132.6,602.25,0,438.65,0h-3c-138,0-162.899,89.6-162.899,89.6C146.75,133,142.65,281.9,142.65,281.9V594
			C228.85,600.9,266.45,557.3,281.85,527.9z M442.25,539.1c-53.7,0-102.301-22.3-137-58.199c-33.2-34.301-53.7-81.101-53.7-132.5
			c0-17.4,2.399-34.3,6.8-50.3c27.2-16.1,66.4-45.1,83.8-86.4c0,0,30,34.9,87.9,68.3c12.1,7,25.5,13.9,40.1,20.4
			c43.601,19.5,98,35.4,162.8,38.8c0.101,3.1,0.2,6.2,0.2,9.3c0,51.4-20.399,98-53.5,132.4C544.75,516.7,496.05,539.1,442.25,539.1z
			"/>
		<path d="M748.35,685l-133.1-46.2c-21-7.3-44.301,0.2-57.2,18.3L443.95,818.2L329.85,657.1c-12.9-18.199-36.2-25.6-57.2-18.3
			L139.55,685c-19.7,6.8-32.9,25.4-32.9,46.3V838c0,27.6,22.4,50,50,50h286.8h1.101h286.8c27.6,0,50-22.4,50-50V731.3
			C781.35,710.5,768.15,691.9,748.35,685z"/>
	</g>
</g>
<g>
</g>
<g>
</g>
<g>
</g>
<g>
</g>
<g>
</g>
<g>
</g>
<g>
</g>
<g>
</g>
<g>
</g>
<g>
</g>
<g>
</g>
<g>
</g>
<g>
</g>
<g>
</g>
<g>
</g>
</svg>
